<svg width="120" height="120" viewBox="0 0 120 120" fill="none" xmlns="http://www.w3.org/2000/svg">
  <circle cx="60" cy="60" r="60" fill="#ffedd5"/>
  <path d="M30 70H90V78H30V70Z" fill="#111827"/>
  <path d="M36 70L30 56H90L84 70H36Z" fill="#f59e0b"/>
  <rect x="40" y="46" width="40" height="18" rx="6" fill="#111827"/>
  <path d="M42 50H52V58H42V50Z" fill="#fff"/>
  <path d="M68 50H78V58H68V50Z" fill="#fff"/>
  <path d="M34 72C34 69.7909 35.7909 68 38 68H82C84.2091 68 86 69.7909 86 72V86H34V72Z" fill="#f97316"/>
  <circle cx="40" cy="90" r="6" fill="#111827"/>
  <circle cx="80" cy="90" r="6" fill="#111827"/>
  <path d="M36 88H44" stroke="#fff" stroke-width="2" stroke-linecap="round"/>
  <path d="M76 88H84" stroke="#fff" stroke-width="2" stroke-linecap="round"/>
</svg>
